<svg xmlns="http://www.w3.org/2000/svg" width="71" height="152" fill="none"><path fill="#475658" d="m54 14.1.3-.3-.4.3ZM0 151.4l5.8-.3-3.2-4.8-2.6 5.1ZM36.8.4a.5.5 0 1 0-.5.8l.5-.8Zm16.7 14a31 31 0 0 1 7.8 15.7c.3 4.1-1.3 7.3-4.1 9.8-2.8 2.6-7 4.5-11.5 6.1C41 47.6 36 49 31.2 50A96.2 96.2 0 0 0 18.6 54c-1.8.7-3.2 1.5-4.3 2.4-1.1.9-1.9 2-2.1 3.2a6 6 0 0 0 1 4.2c.8 1.5 2.2 3.1 4.3 5a125 125 0 0 0 21 14l.5-1A124 124 0 0 1 18.1 68c-2-1.8-3.3-3.3-4.1-4.7-.8-1.4-1-2.5-.8-3.5.2-1 .7-1.8 1.7-2.7 1-.8 2.4-1.5 4-2.2 3.4-1.4 7.8-2.6 12.6-3.8 4.7-1.2 9.9-2.4 14.5-4a35 35 0 0 0 11.9-6.4c3-2.7 4.7-6.1 4.4-10.5a32 32 0 0 0-8-16.3l-.8.6Zm-15 68.3C48.2 88 55.2 92.9 60 97.3c4.9 4.4 7.6 8.3 8.7 11.8 1 3.5.5 6.6-1.2 9.4a26 26 0 0 1-8.5 7.9c-7.6 4.8-18.3 8.7-28.7 12.2-10.3 3.5-20.4 6.6-26.6 10l.5.8c6-3.2 16-6.3 26.4-9.9a142 142 0 0 0 29-12.3c3.8-2.4 6.9-5.1 8.7-8.2 1.9-3 2.5-6.4 1.3-10.2a29 29 0 0 0-8.9-12.3c-5-4.4-12-9.3-21.6-14.7l-.4.9Zm15.8-68.9c-1.8-2.3-5-5-8.3-7.4-3.3-2.4-6.8-4.6-9.2-6l-.5.8c2.4 1.5 5.8 3.6 9.1 6s6.4 5 8.1 7.2l.8-.6Z"/></svg>