<svg xmlns="http://www.w3.org/2000/svg" width="19" height="24" viewBox="0 0 19 24" fill="none"><path fill="#D44B4B" d="M9.5 0C14.7 0 19 4.3 19 9.7c0 4-2.9 8.5-8.4 13.4a1.7 1.7 0 0 1-2.2 0l-.4-.3C2.7 18 0 13.7 0 9.7 0 4.3 4.2 0 9.5 0Zm0 1.5a8 8 0 0 0-5.7 2.4 8.3 8.3 0 0 0-2.3 5.8c0 3.4 2.4 7.4 7.5 12l.3.3a.2.2 0 0 0 .3 0c5.3-4.7 7.9-8.8 7.9-12.3A8.3 8.3 0 0 0 15 3.9a8 8 0 0 0-5.6-2.4Zm0 4.5c1 0 1.9.3 2.6 1a3.8 3.8 0 0 1 0 5.3 3.6 3.6 0 0 1-5.2 0 3.8 3.8 0 0 1 0-5.3c.7-.7 1.6-1 2.6-1Zm0 1.4c-.6 0-1.2.3-1.6.7a2.3 2.3 0 0 0 0 3.1 2.2 2.2 0 0 0 3.1 0 2.3 2.3 0 0 0 0-3.1c-.4-.4-1-.7-1.5-.7Z"/></svg>
