<svg xmlns="http://www.w3.org/2000/svg" width="27" height="31" viewBox="0 0 27 31" fill="none"><path fill="#D44B4B" d="m19.6 30.4-.8-.2c-4.9-1.6-9.3-4.7-12.6-8.7C2.9 17.4.9 12.5.3 7.2a3.9 3.9 0 0 1 1.5-3.4L5.4.9A1.6 1.6 0 0 1 6.7.6a1.6 1.6 0 0 1 1.1.9L11.2 8a1.4 1.4 0 0 1-.3 1.6l-2.3 2.3c.6 1.9 1.6 3.7 2.9 5.2 1.2 1.6 2.8 3 4.5 4l2.8-1.8a1.3 1.3 0 0 1 1.5 0L26 24a1.6 1.6 0 0 1 .6 1.3 1.7 1.7 0 0 1-.6 1.4l-3.5 2.8a3.9 3.9 0 0 1-2.9.9ZM6.4 2.2 2.8 5.1A2.1 2.1 0 0 0 2 7c.5 4.8 2.4 9.5 5.4 13.3 3.2 3.8 7.3 6.7 12 8.2a2.2 2.2 0 0 0 2-.4l3.6-2.9-5.5-4.5-3 2a.8.8 0 0 1-.7 0c-2.2-1.1-4-2.7-5.6-4.6-1.5-1.9-2.6-4-3.3-6.4a.9.9 0 0 1 .3-.8l2.5-2.4-3.3-6.4Z"/></svg>
